<svg width="1425" height="628" xmlns="http://www.w3.org/2000/svg" xmlns:xlink="http://www.w3.org/1999/xlink" xml:space="preserve" overflow="hidden"><g transform="translate(-820 -2997)"><g><path d="M1853 3014 1517 3593 1181 3014Z" stroke="#E3DFF7" stroke-width="27.5" stroke-linecap="butt" stroke-linejoin="miter" stroke-miterlimit="8" stroke-opacity="1" fill="#F1EEFF" fill-rule="evenodd" fill-opacity="0.501961"/><path d="M1371 3276 1518 3032 1665 3276Z" stroke="#E3DFF7" stroke-width="27.5" stroke-linecap="butt" stroke-linejoin="miter" stroke-miterlimit="8" stroke-opacity="1" fill="#F1EEFF" fill-rule="evenodd" fill-opacity="0.501961"/><path d="M1650.03 3267.28 1717.54 3267.28C1719.04 3267.28 1720.09 3267.76 1720.68 3268.73 1721.27 3269.7 1721.56 3270.98 1721.56 3272.59 1721.56 3273.23 1721.54 3274.09 1721.48 3275.16 1721.43 3276.24 1721.24 3277.39 1720.92 3278.62 1720.6 3279.86 1720.22 3281.09 1719.79 3282.32 1719.36 3283.55 1718.85 3284.71 1718.26 3285.78 1717.67 3286.85 1716.92 3287.71 1716.01 3288.35 1715.09 3289 1714.1 3289.32 1713.03 3289.32L1645.52 3289.32C1644.13 3289.32 1643.11 3288.84 1642.46 3287.87 1641.82 3286.91 1641.5 3285.46 1641.5 3283.53 1641.5 3282.99 1641.55 3282.21 1641.66 3281.2 1641.76 3280.18 1641.95 3279.05 1642.22 3277.82 1642.49 3276.58 1642.84 3275.32 1643.27 3274.04 1643.7 3272.75 1644.23 3271.6 1644.88 3270.58 1645.52 3269.56 1646.25 3268.76 1647.05 3268.17 1647.86 3267.58 1648.85 3267.28 1650.03 3267.28ZM1515.78 3205.68C1518.68 3205.68 1520.96 3205.76 1522.63 3205.92 1524.29 3206.08 1525.58 3206.35 1526.5 3206.72 1527.41 3207.1 1528.05 3207.66 1528.43 3208.41 1528.8 3209.16 1529.05 3210.07 1529.15 3211.14L1548 3329.21 1548.32 3329.21C1554.98 3319.88 1561 3310.39 1566.37 3300.74 1571.74 3291.09 1576.68 3281.3 1581.19 3271.38 1585.7 3261.46 1589.86 3251.44 1593.68 3241.3 1597.49 3231.17 1601.06 3220.9 1604.39 3210.5 1604.6 3209.64 1605.01 3208.92 1605.6 3208.33 1606.19 3207.74 1607.05 3207.23 1608.17 3206.8 1609.3 3206.37 1610.83 3206.08 1612.77 3205.92 1614.7 3205.76 1617.12 3205.68 1620.02 3205.68 1624.85 3205.68 1628.07 3206 1629.68 3206.64 1631.29 3207.28 1632.1 3208.25 1632.1 3209.54 1632.1 3210.72 1631.99 3211.92 1631.78 3213.16 1631.56 3214.39 1631.19 3215.54 1630.65 3216.61 1627.1 3226.37 1623.24 3236.53 1619.05 3247.1 1614.86 3257.66 1609.97 3268.7 1604.39 3280.23 1598.8 3291.76 1592.28 3303.8 1584.81 3316.34 1577.35 3328.89 1568.46 3342.08 1558.15 3355.91L1516.43 3412.69C1515.78 3413.55 1514.98 3414.3 1514.01 3414.94 1513.04 3415.59 1511.86 3416.15 1510.47 3416.63 1509.07 3417.12 1507.38 3417.46 1505.39 3417.68 1503.4 3417.89 1501.07 3418 1498.38 3418 1495.48 3418 1493.09 3417.87 1491.21 3417.6 1489.33 3417.33 1487.91 3416.87 1486.94 3416.23 1485.98 3415.59 1485.55 3414.73 1485.66 3413.66 1485.76 3412.58 1486.41 3411.3 1487.59 3409.8L1526.9 3359.45 1502.89 3218.06C1502.68 3216.77 1502.52 3215.6 1502.41 3214.52 1502.3 3213.45 1502.25 3212.54 1502.25 3211.79 1502.25 3210.61 1502.44 3209.62 1502.81 3208.81 1503.19 3208.01 1503.91 3207.36 1504.99 3206.88 1506.06 3206.4 1507.49 3206.08 1509.26 3205.92 1511.03 3205.76 1513.2 3205.68 1515.78 3205.68ZM1350.17 3205.68C1352.75 3205.68 1354.87 3205.78 1356.53 3206 1358.2 3206.21 1359.49 3206.53 1360.4 3206.96 1361.31 3207.39 1361.9 3207.93 1362.17 3208.57 1362.44 3209.21 1362.52 3209.91 1362.41 3210.66L1333.58 3355.43C1333.36 3356.29 1332.98 3357.01 1332.45 3357.6 1331.91 3358.19 1331.1 3358.7 1330.03 3359.13 1328.96 3359.56 1327.53 3359.88 1325.76 3360.09 1323.99 3360.31 1321.81 3360.42 1319.24 3360.42 1316.55 3360.42 1314.38 3360.31 1312.71 3360.09 1311.05 3359.88 1309.76 3359.56 1308.85 3359.13 1307.93 3358.7 1307.34 3358.19 1307.07 3357.6 1306.81 3357.01 1306.78 3356.29 1306.99 3355.43L1335.83 3210.66C1335.94 3209.91 1336.26 3209.21 1336.8 3208.57 1337.33 3207.93 1338.14 3207.39 1339.21 3206.96 1340.29 3206.53 1341.71 3206.21 1343.48 3206 1345.26 3205.78 1347.48 3205.68 1350.17 3205.68ZM1106.15 3205.68C1108.73 3205.68 1110.85 3205.78 1112.52 3206 1114.18 3206.21 1115.47 3206.53 1116.38 3206.96 1117.29 3207.39 1117.89 3207.93 1118.15 3208.57 1118.42 3209.21 1118.5 3209.91 1118.4 3210.66L1089.56 3355.43C1089.34 3356.29 1088.97 3357.01 1088.43 3357.6 1087.89 3358.19 1087.09 3358.7 1086.01 3359.13 1084.94 3359.56 1083.52 3359.88 1081.74 3360.09 1079.97 3360.31 1077.8 3360.42 1075.22 3360.42 1072.53 3360.42 1070.36 3360.31 1068.7 3360.09 1067.03 3359.88 1065.74 3359.56 1064.83 3359.13 1063.92 3358.7 1063.33 3358.19 1063.06 3357.6 1062.79 3357.01 1062.76 3356.29 1062.98 3355.43L1091.81 3210.66C1091.92 3209.91 1092.24 3209.21 1092.78 3208.57 1093.32 3207.93 1094.12 3207.39 1095.2 3206.96 1096.27 3206.53 1097.69 3206.21 1099.47 3206 1101.24 3205.78 1103.47 3205.68 1106.15 3205.68ZM1242.02 3203.42C1249.21 3203.42 1255.23 3204.52 1260.06 3206.72 1264.89 3208.92 1268.81 3211.82 1271.82 3215.41 1274.83 3219 1276.97 3223.16 1278.26 3227.87 1279.55 3232.59 1280.2 3237.52 1280.2 3242.67 1280.2 3246.43 1279.98 3250.12 1279.55 3253.77 1279.12 3257.42 1278.53 3261.17 1277.78 3265.03L1259.58 3355.43C1259.36 3356.29 1259.01 3357.01 1258.53 3357.6 1258.04 3358.19 1257.24 3358.7 1256.11 3359.13 1254.98 3359.56 1253.56 3359.88 1251.84 3360.09 1250.12 3360.31 1247.92 3360.42 1245.24 3360.42 1242.66 3360.42 1240.54 3360.31 1238.87 3360.09 1237.21 3359.88 1235.92 3359.56 1235.01 3359.13 1234.09 3358.7 1233.5 3358.19 1233.23 3357.6 1232.97 3357.01 1232.89 3356.29 1232.99 3355.43L1250.88 3266C1251.63 3262.67 1252.14 3259.45 1252.41 3256.34 1252.67 3253.23 1252.81 3250.5 1252.81 3248.14 1252.81 3241.6 1251.41 3236.32 1248.62 3232.3 1245.83 3228.28 1241.16 3226.27 1234.6 3226.27 1228.91 3226.27 1223.09 3227.9 1217.12 3231.17 1211.16 3234.44 1205.63 3238.95 1200.53 3244.68 1195.43 3250.42 1190.86 3257.23 1186.84 3265.11 1182.81 3272.99 1179.88 3281.54 1178.06 3290.77L1165.17 3355.43C1164.95 3356.29 1164.58 3357.01 1164.04 3357.6 1163.5 3358.19 1162.7 3358.7 1161.62 3359.13 1160.55 3359.56 1159.13 3359.88 1157.36 3360.09 1155.58 3360.31 1153.41 3360.42 1150.83 3360.42 1148.15 3360.42 1145.97 3360.31 1144.31 3360.09 1142.64 3359.88 1141.35 3359.56 1140.44 3359.13 1139.53 3358.7 1138.94 3358.19 1138.67 3357.6 1138.4 3357.01 1138.37 3356.29 1138.59 3355.43L1167.75 3210.5C1167.85 3209.75 1168.15 3209.05 1168.63 3208.41 1169.12 3207.77 1169.87 3207.23 1170.89 3206.8 1171.91 3206.37 1173.2 3206.08 1174.75 3205.92 1176.31 3205.76 1178.16 3205.68 1180.31 3205.68 1182.57 3205.68 1184.42 3205.76 1185.87 3205.92 1187.32 3206.08 1188.45 3206.37 1189.25 3206.8 1190.06 3207.23 1190.57 3207.77 1190.78 3208.41 1191 3209.05 1191.05 3209.75 1190.95 3210.5L1185.47 3238.17C1187.08 3234.52 1189.71 3230.66 1193.36 3226.59 1197.01 3222.51 1201.36 3218.76 1206.41 3215.33 1211.46 3211.9 1217.02 3209.05 1223.09 3206.8 1229.15 3204.55 1235.46 3203.42 1242.02 3203.42ZM1041.71 3203.42C1043.54 3203.42 1045.39 3203.56 1047.27 3203.83 1049.15 3204.09 1050.89 3204.42 1052.5 3204.79 1054.12 3205.17 1055.54 3205.6 1056.77 3206.08 1058.01 3206.56 1058.95 3207.12 1059.59 3207.77 1060.24 3208.41 1060.56 3209.43 1060.56 3210.82 1060.56 3211.25 1060.48 3212.08 1060.32 3213.32 1060.16 3214.55 1059.97 3215.97 1059.75 3217.58 1059.54 3219.19 1059.22 3220.85 1058.79 3222.57 1058.36 3224.28 1057.82 3225.86 1057.18 3227.31 1056.53 3228.76 1055.86 3229.96 1055.16 3230.93 1054.46 3231.89 1053.69 3232.38 1052.83 3232.38 1051.97 3232.38 1051.03 3232.19 1050.01 3231.81 1048.99 3231.44 1047.86 3230.98 1046.62 3230.45 1045.39 3229.91 1043.97 3229.46 1042.36 3229.08 1040.74 3228.7 1038.86 3228.52 1036.72 3228.52 1033.06 3228.52 1028.85 3230.1 1024.07 3233.26 1019.29 3236.43 1014.59 3240.8 1009.97 3246.37 1005.36 3251.95 1001.14 3258.54 997.327 3266.16 993.514 3273.77 990.695 3282.03 988.869 3290.93L976.142 3355.43C975.927 3356.29 975.551 3357.01 975.014 3357.6 974.477 3358.19 973.671 3358.7 972.598 3359.13 971.523 3359.56 970.1 3359.88 968.328 3360.09 966.556 3360.31 964.381 3360.42 961.804 3360.42 959.119 3360.42 956.944 3360.31 955.279 3360.09 953.614 3359.88 952.325 3359.56 951.412 3359.13 950.5 3358.7 949.909 3358.19 949.641 3357.6 949.372 3357.01 949.345 3356.29 949.56 3355.43L978.397 3210.5C978.505 3209.75 978.827 3209.05 979.364 3208.41 979.901 3207.77 980.706 3207.23 981.781 3206.8 982.854 3206.37 984.17 3206.08 985.727 3205.92 987.285 3205.76 989.137 3205.68 991.285 3205.68 993.541 3205.68 995.394 3205.76 996.844 3205.92 998.293 3206.08 999.421 3206.37 1000.23 3206.8 1001.03 3207.23 1001.54 3207.77 1001.76 3208.41 1001.97 3209.05 1002.03 3209.75 1001.92 3210.5L996.602 3236.88C999.072 3232.48 1002 3228.25 1005.38 3224.17 1008.77 3220.1 1012.44 3216.53 1016.42 3213.48 1020.39 3210.42 1024.55 3207.98 1028.9 3206.16 1033.25 3204.34 1037.52 3203.42 1041.71 3203.42ZM1807.22 3174.15 1793.04 3244.28 1817.53 3244.28C1827.09 3244.28 1835.22 3242.99 1841.93 3240.42 1848.65 3237.85 1854.12 3234.44 1858.37 3230.21 1862.61 3225.97 1865.72 3221.17 1867.71 3215.81 1869.7 3210.45 1870.69 3204.93 1870.69 3199.24 1870.69 3195.6 1870.05 3192.22 1868.76 3189.11 1867.47 3186 1865.46 3183.32 1862.72 3181.07 1859.98 3178.81 1856.38 3177.1 1851.92 3175.92 1847.47 3174.74 1842.18 3174.15 1836.05 3174.15ZM1439.96 3166.91C1442.53 3166.91 1444.66 3167.02 1446.32 3167.23 1447.98 3167.45 1449.27 3167.8 1450.19 3168.28 1451.1 3168.76 1451.69 3169.32 1451.96 3169.97 1452.23 3170.61 1452.31 3171.31 1452.2 3172.06L1445.27 3206.48 1482.33 3206.48C1483.94 3206.48 1485.01 3207.07 1485.55 3208.25 1486.09 3209.43 1486.35 3210.77 1486.35 3212.27 1486.35 3213.24 1486.3 3214.28 1486.19 3215.41 1486.09 3216.53 1485.87 3217.69 1485.55 3218.87 1485.23 3220.05 1484.8 3221.22 1484.26 3222.4 1483.72 3223.58 1483.16 3224.63 1482.57 3225.54 1481.98 3226.45 1481.31 3227.18 1480.55 3227.71 1479.8 3228.25 1478.94 3228.52 1477.98 3228.52L1440.92 3228.52 1424.65 3309.26C1424.22 3311.52 1423.85 3314.04 1423.52 3316.82 1423.2 3319.61 1423.04 3321.92 1423.04 3323.74 1423.04 3329.21 1424.2 3333.2 1426.5 3335.72 1428.81 3338.24 1432.55 3339.5 1437.7 3339.5 1440.6 3339.5 1443.12 3339.26 1445.27 3338.78 1447.42 3338.3 1449.27 3337.79 1450.83 3337.25 1452.39 3336.72 1453.76 3336.21 1454.94 3335.72 1456.12 3335.24 1457.14 3335 1458 3335 1458.86 3335 1459.53 3335.3 1460.01 3335.89 1460.5 3336.48 1460.74 3337.57 1460.74 3339.18 1460.74 3340.58 1460.6 3342.1 1460.34 3343.77 1460.07 3345.43 1459.72 3347.06 1459.29 3348.67 1458.86 3350.28 1458.32 3351.73 1457.68 3353.02 1457.03 3354.3 1456.34 3355.32 1455.58 3356.07 1454.72 3356.82 1453.44 3357.57 1451.72 3358.32 1450 3359.07 1448.01 3359.75 1445.76 3360.33 1443.5 3360.92 1441.11 3361.38 1438.59 3361.7 1436.06 3362.02 1433.57 3362.18 1431.1 3362.18 1425.08 3362.18 1419.87 3361.54 1415.47 3360.25 1411.07 3358.97 1407.36 3356.96 1404.35 3354.22 1401.35 3351.49 1399.12 3348.06 1397.67 3343.93 1396.22 3339.8 1395.49 3334.84 1395.49 3329.05 1395.49 3327.76 1395.55 3326.34 1395.65 3324.79 1395.76 3323.23 1395.95 3321.6 1396.22 3319.88 1396.49 3318.16 1396.75 3316.45 1397.02 3314.73 1397.29 3313.02 1397.59 3311.41 1397.91 3309.91L1414.18 3228.52 1394.04 3228.52C1392.86 3228.52 1391.95 3228.17 1391.3 3227.47 1390.66 3226.77 1390.34 3225.41 1390.34 3223.37 1390.34 3221.87 1390.5 3220.13 1390.82 3218.14 1391.14 3216.16 1391.63 3214.31 1392.27 3212.59 1392.91 3210.88 1393.75 3209.43 1394.77 3208.25 1395.79 3207.07 1397 3206.48 1398.39 3206.48L1418.69 3206.48 1425.62 3172.06C1425.73 3171.31 1426.07 3170.61 1426.67 3169.97 1427.26 3169.32 1428.09 3168.76 1429.16 3168.28 1430.24 3167.8 1431.66 3167.45 1433.43 3167.23 1435.2 3167.02 1437.38 3166.91 1439.96 3166.91ZM2094.3 3151.31 2239.29 3151.31C2240.69 3151.31 2241.66 3151.82 2242.19 3152.84 2242.73 3153.86 2243 3155.22 2243 3156.94 2243 3157.58 2242.97 3158.47 2242.92 3159.59 2242.87 3160.72 2242.7 3161.92 2242.44 3163.21 2242.17 3164.5 2241.82 3165.87 2241.39 3167.31 2240.96 3168.76 2240.42 3170.02 2239.78 3171.09 2239.13 3172.17 2238.35 3173.05 2237.44 3173.75 2236.53 3174.44 2235.54 3174.79 2234.46 3174.79L2175.82 3174.79 2139.57 3355.27C2139.36 3356.13 2138.95 3356.88 2138.36 3357.52 2137.77 3358.16 2136.91 3358.67 2135.79 3359.05 2134.66 3359.42 2133.18 3359.75 2131.36 3360.01 2129.53 3360.28 2127.27 3360.42 2124.59 3360.42 2121.9 3360.42 2119.7 3360.28 2117.98 3360.01 2116.27 3359.75 2114.92 3359.42 2113.96 3359.05 2112.99 3358.67 2112.35 3358.16 2112.02 3357.52 2111.7 3356.88 2111.65 3356.13 2111.86 3355.27L2147.95 3174.79 2089.63 3174.79C2088.13 3174.79 2087.11 3174.31 2086.57 3173.34 2086.03 3172.38 2085.76 3171.04 2085.76 3169.32 2085.76 3168.57 2085.84 3167.63 2086.01 3166.51 2086.17 3165.38 2086.38 3164.12 2086.65 3162.73 2086.92 3161.33 2087.27 3159.99 2087.7 3158.71 2088.13 3157.42 2088.66 3156.21 2089.31 3155.09 2089.95 3153.96 2090.68 3153.05 2091.48 3152.35 2092.29 3151.66 2093.23 3151.31 2094.3 3151.31ZM1973.05 3151.31 2066.65 3151.31C2068.15 3151.31 2069.14 3151.82 2069.63 3152.84 2070.11 3153.86 2070.35 3155.17 2070.35 3156.78 2070.35 3157.42 2070.32 3158.28 2070.27 3159.35 2070.22 3160.42 2070.06 3161.63 2069.79 3162.97 2069.52 3164.31 2069.17 3165.68 2068.74 3167.07 2068.31 3168.47 2067.77 3169.75 2067.13 3170.93 2066.49 3172.11 2065.73 3173.05 2064.87 3173.75 2064.01 3174.44 2063.05 3174.79 2061.97 3174.79L1985.77 3174.79 1971.6 3245.57 2043.77 3245.57C2045.06 3245.57 2046 3246.02 2046.59 3246.93 2047.18 3247.85 2047.48 3249.11 2047.48 3250.71 2047.48 3251.57 2047.42 3252.56 2047.31 3253.69 2047.21 3254.82 2047.02 3256 2046.75 3257.23 2046.48 3258.46 2046.13 3259.78 2045.7 3261.17 2045.27 3262.56 2044.74 3263.8 2044.09 3264.87 2043.45 3265.94 2042.7 3266.83 2041.84 3267.52 2040.98 3268.22 2040.01 3268.57 2038.94 3268.57L1966.92 3268.57 1949.52 3355.27C1949.42 3356.13 1949.07 3356.88 1948.48 3357.52 1947.89 3358.16 1947.03 3358.67 1945.9 3359.05 1944.77 3359.42 1943.3 3359.75 1941.47 3360.01 1939.64 3360.28 1937.39 3360.42 1934.7 3360.42 1932.02 3360.42 1929.79 3360.28 1928.02 3360.01 1926.25 3359.75 1924.88 3359.42 1923.91 3359.05 1922.94 3358.67 1922.3 3358.16 1921.98 3357.52 1921.65 3356.88 1921.6 3356.13 1921.81 3355.27L1960.48 3162.57C1961.23 3158.39 1962.9 3155.46 1965.47 3153.8 1968.05 3152.14 1970.58 3151.31 1973.05 3151.31ZM1795.46 3151.31 1840.73 3151.31C1850.61 3151.31 1859.28 3152.27 1866.74 3154.2 1874.21 3156.13 1880.47 3158.95 1885.51 3162.65 1890.56 3166.35 1894.35 3170.91 1896.87 3176.32 1899.39 3181.74 1900.66 3187.93 1900.66 3194.9 1900.66 3202.3 1899.61 3209.32 1897.52 3215.97 1895.42 3222.62 1892.25 3228.73 1888.01 3234.31 1883.77 3239.88 1878.45 3244.84 1872.06 3249.19 1865.67 3253.53 1858.23 3257.04 1849.75 3259.72 1855.44 3261.76 1860.06 3266.05 1863.6 3272.59 1867.15 3279.13 1869.89 3287.76 1871.82 3298.49L1880.36 3344.49C1880.68 3346.53 1880.98 3348.43 1881.24 3350.2 1881.51 3351.97 1881.65 3353.55 1881.65 3354.95 1881.65 3355.91 1881.38 3356.74 1880.84 3357.44 1880.3 3358.14 1879.44 3358.7 1878.26 3359.13 1877.08 3359.56 1875.44 3359.88 1873.35 3360.09 1871.26 3360.31 1868.7 3360.42 1865.7 3360.42 1862.9 3360.42 1860.65 3360.31 1858.93 3360.09 1857.21 3359.88 1855.9 3359.5 1854.98 3358.97 1854.07 3358.43 1853.43 3357.76 1853.05 3356.96 1852.68 3356.15 1852.38 3355.05 1852.16 3353.66L1843.95 3304.76C1843.09 3299.08 1841.88 3293.93 1840.32 3289.32 1838.77 3284.71 1836.59 3280.71 1833.8 3277.34 1831.01 3273.96 1827.44 3271.33 1823.09 3269.45 1818.74 3267.58 1813.45 3266.64 1807.22 3266.64L1788.69 3266.64 1770.81 3355.43C1770.59 3356.18 1770.22 3356.88 1769.68 3357.52 1769.14 3358.16 1768.28 3358.67 1767.1 3359.05 1765.92 3359.42 1764.42 3359.75 1762.59 3360.01 1760.77 3360.28 1758.51 3360.42 1755.83 3360.42 1753.36 3360.42 1751.23 3360.31 1749.46 3360.09 1747.69 3359.88 1746.32 3359.58 1745.35 3359.21 1744.39 3358.83 1743.72 3358.32 1743.34 3357.68 1742.96 3357.04 1742.88 3356.29 1743.1 3355.43L1781.76 3162.57C1782.62 3158.39 1784.34 3155.46 1786.92 3153.8 1789.5 3152.14 1792.34 3151.31 1795.46 3151.31ZM829.538 3151.31 974.531 3151.31C975.927 3151.31 976.894 3151.82 977.43 3152.84 977.968 3153.86 978.236 3155.22 978.236 3156.94 978.236 3157.58 978.209 3158.47 978.156 3159.59 978.102 3160.72 977.941 3161.92 977.672 3163.21 977.404 3164.5 977.055 3165.87 976.625 3167.31 976.195 3168.76 975.659 3170.02 975.014 3171.09 974.37 3172.17 973.591 3173.05 972.678 3173.75 971.765 3174.44 970.772 3174.79 969.698 3174.79L911.056 3174.79 874.808 3355.27C874.594 3356.13 874.191 3356.88 873.6 3357.52 873.009 3358.16 872.15 3358.67 871.022 3359.05 869.895 3359.42 868.418 3359.75 866.592 3360.01 864.766 3360.28 862.511 3360.42 859.826 3360.42 857.14 3360.42 854.939 3360.28 853.22 3360.01 851.502 3359.75 850.16 3359.42 849.193 3359.05 848.226 3358.67 847.582 3358.16 847.26 3357.52 846.937 3356.88 846.884 3356.13 847.099 3355.27L883.186 3174.79 824.866 3174.79C823.363 3174.79 822.343 3174.31 821.806 3173.34 821.268 3172.38 821 3171.04 821 3169.32 821 3168.57 821.08 3167.63 821.242 3166.51 821.403 3165.38 821.618 3164.12 821.886 3162.73 822.155 3161.33 822.503 3159.99 822.933 3158.71 823.363 3157.42 823.9 3156.21 824.544 3155.09 825.189 3153.96 825.914 3153.05 826.719 3152.35 827.525 3151.66 828.464 3151.31 829.538 3151.31ZM1362.25 3146C1365.37 3146 1367.92 3146.24 1369.9 3146.72 1371.89 3147.21 1373.39 3148.12 1374.41 3149.46 1375.43 3150.8 1376 3152.46 1376.11 3154.44 1376.21 3156.43 1375.95 3158.92 1375.3 3161.92 1374.76 3164.93 1374.04 3167.45 1373.13 3169.48 1372.21 3171.52 1371 3173.16 1369.5 3174.39 1368 3175.62 1366.12 3176.51 1363.86 3177.04 1361.61 3177.58 1358.87 3177.85 1355.65 3177.85 1352.53 3177.85 1349.95 3177.58 1347.91 3177.04 1345.87 3176.51 1344.37 3175.62 1343.4 3174.39 1342.44 3173.16 1341.9 3171.52 1341.79 3169.48 1341.68 3167.45 1341.9 3164.93 1342.44 3161.92 1343.08 3158.92 1343.89 3156.43 1344.85 3154.44 1345.82 3152.46 1347.03 3150.8 1348.48 3149.46 1349.93 3148.12 1351.78 3147.21 1354.04 3146.72 1356.29 3146.24 1359.03 3146 1362.25 3146ZM1118.23 3146C1121.35 3146 1123.9 3146.24 1125.89 3146.72 1127.87 3147.21 1129.38 3148.12 1130.4 3149.46 1131.42 3150.8 1131.98 3152.46 1132.09 3154.44 1132.2 3156.43 1131.93 3158.92 1131.28 3161.92 1130.75 3164.93 1130.02 3167.45 1129.11 3169.48 1128.2 3171.52 1126.99 3173.16 1125.48 3174.39 1123.98 3175.62 1122.1 3176.51 1119.85 3177.04 1117.59 3177.58 1114.85 3177.85 1111.63 3177.85 1108.51 3177.85 1105.94 3177.58 1103.9 3177.04 1101.86 3176.51 1100.35 3175.62 1099.39 3174.39 1098.42 3173.16 1097.88 3171.52 1097.77 3169.48 1097.67 3167.45 1097.88 3164.93 1098.42 3161.92 1099.06 3158.92 1099.87 3156.43 1100.84 3154.44 1101.8 3152.46 1103.01 3150.8 1104.46 3149.46 1105.91 3148.12 1107.76 3147.21 1110.02 3146.72 1112.27 3146.24 1115.01 3146 1118.23 3146Z" fill="#762EB1" fill-rule="evenodd" fill-opacity="1"/></g></g></svg>
